<svg xmlns="http://www.w3.org/2000/svg" width="192" height="192" viewBox="0 0 256 256" role="img" aria-label="EcoPlate app icon">
  <defs>
    <linearGradient id="eco-bg-192" x1="0%" y1="0%" x2="100%" y2="100%">
      <stop offset="0%" stop-color="#22c55e" />
      <stop offset="100%" stop-color="#15803d" />
    </linearGradient>
    <linearGradient id="eco-leaf-192" x1="0%" y1="0%" x2="100%" y2="100%">
      <stop offset="0%" stop-color="#f0fdf4" />
      <stop offset="100%" stop-color="#bbf7d0" />
    </linearGradient>
  </defs>
  <rect x="16" y="16" width="224" height="224" rx="56" fill="url(#eco-bg-192)" />
  <path d="M136 58c-44 0-80 37-80 82 0 32 20 58 49 68 5 2 10-3 9-8-6-29 8-61 36-79 8-5 18-9 30-11-8 13-18 24-31 34-18 14-32 35-36 59-1 6 4 11 10 9 45-12 77-53 77-100 0-30-27-54-64-54z" fill="url(#eco-leaf-192)" />
  <path d="M111 180c13-23 38-45 69-58" fill="none" stroke="#16a34a" stroke-width="10" stroke-linecap="round" />
</svg>
